<mxfile host="app.diagrams.net" agent="Mozilla/5.0 (Windows NT 10.0; Win64; x64) AppleWebKit/537.36 (KHTML, like Gecko) Chrome/130.0.0.0 Safari/537.36" version="24.8.3" pages="7">
  <diagram name="use case(admin)" id="1LA4UL3b5Ih5_0MJuIHD">
    <mxGraphModel dx="880" dy="472" grid="1" gridSize="10" guides="1" tooltips="1" connect="1" arrows="1" fold="1" page="1" pageScale="1" pageWidth="827" pageHeight="1169" math="0" shadow="0">
      <root>
        <mxCell id="0" />
        <mxCell id="1" parent="0" />
        <mxCell id="wS7wnGFNPo0-zoAztSaw-1" value="" style="html=1;align=center;verticalAlign=top;rounded=1;absoluteArcSize=1;arcSize=20;dashed=1;whiteSpace=wrap;fontStyle=1;fontSize=16;" parent="1" vertex="1">
          <mxGeometry x="130" y="40" width="520" height="600" as="geometry" />
        </mxCell>
        <mxCell id="wS7wnGFNPo0-zoAztSaw-12" style="rounded=0;orthogonalLoop=1;jettySize=auto;html=1;entryX=0;entryY=0.5;entryDx=0;entryDy=0;endArrow=none;endFill=0;" parent="1" source="wS7wnGFNPo0-zoAztSaw-2" target="wS7wnGFNPo0-zoAztSaw-6" edge="1">
          <mxGeometry relative="1" as="geometry" />
        </mxCell>
        <mxCell id="wS7wnGFNPo0-zoAztSaw-13" style="rounded=0;orthogonalLoop=1;jettySize=auto;html=1;entryX=0;entryY=0.5;entryDx=0;entryDy=0;endArrow=none;endFill=0;" parent="1" source="wS7wnGFNPo0-zoAztSaw-2" target="wS7wnGFNPo0-zoAztSaw-7" edge="1">
          <mxGeometry relative="1" as="geometry" />
        </mxCell>
        <mxCell id="wS7wnGFNPo0-zoAztSaw-14" style="rounded=0;orthogonalLoop=1;jettySize=auto;html=1;entryX=0;entryY=0.5;entryDx=0;entryDy=0;endArrow=none;endFill=0;" parent="1" source="wS7wnGFNPo0-zoAztSaw-2" target="wS7wnGFNPo0-zoAztSaw-8" edge="1">
          <mxGeometry relative="1" as="geometry" />
        </mxCell>
        <mxCell id="wS7wnGFNPo0-zoAztSaw-15" style="rounded=0;orthogonalLoop=1;jettySize=auto;html=1;entryX=0;entryY=0.5;entryDx=0;entryDy=0;endArrow=none;endFill=0;" parent="1" source="wS7wnGFNPo0-zoAztSaw-2" target="wS7wnGFNPo0-zoAztSaw-9" edge="1">
          <mxGeometry relative="1" as="geometry" />
        </mxCell>
        <mxCell id="wS7wnGFNPo0-zoAztSaw-2" value="Admin" style="shape=umlActor;verticalLabelPosition=bottom;verticalAlign=top;html=1;fontStyle=1;fontSize=16;" parent="1" vertex="1">
          <mxGeometry x="40" y="220" width="30" height="60" as="geometry" />
        </mxCell>
        <mxCell id="wS7wnGFNPo0-zoAztSaw-17" style="rounded=0;orthogonalLoop=1;jettySize=auto;html=1;entryX=0;entryY=0.5;entryDx=0;entryDy=0;startArrow=classic;startFill=1;" parent="1" source="wS7wnGFNPo0-zoAztSaw-4" target="wS7wnGFNPo0-zoAztSaw-16" edge="1">
          <mxGeometry relative="1" as="geometry" />
        </mxCell>
        <mxCell id="wS7wnGFNPo0-zoAztSaw-18" value="incllud" style="edgeLabel;html=1;align=center;verticalAlign=middle;resizable=0;points=[];" parent="wS7wnGFNPo0-zoAztSaw-17" vertex="1" connectable="0">
          <mxGeometry x="0.1" y="-1" relative="1" as="geometry">
            <mxPoint as="offset" />
          </mxGeometry>
        </mxCell>
        <mxCell id="wS7wnGFNPo0-zoAztSaw-4" value="Login" style="ellipse;whiteSpace=wrap;html=1;fontStyle=1;fontSize=16;" parent="1" vertex="1">
          <mxGeometry x="240" y="64" width="140" height="70" as="geometry" />
        </mxCell>
        <mxCell id="wS7wnGFNPo0-zoAztSaw-5" value="Menambahkan&lt;div&gt;Guru / Staf TU&lt;/div&gt;" style="ellipse;whiteSpace=wrap;html=1;fontStyle=1;fontSize=16;" parent="1" vertex="1">
          <mxGeometry x="240" y="150" width="140" height="70" as="geometry" />
        </mxCell>
        <mxCell id="wS7wnGFNPo0-zoAztSaw-6" value="Menambahkan&lt;div&gt;Siswa&lt;/div&gt;" style="ellipse;whiteSpace=wrap;html=1;fontStyle=1;fontSize=16;" parent="1" vertex="1">
          <mxGeometry x="240" y="240" width="140" height="70" as="geometry" />
        </mxCell>
        <mxCell id="wS7wnGFNPo0-zoAztSaw-7" value="Menambahkan&lt;div&gt;Mata Pelajaran&amp;nbsp;&lt;/div&gt;" style="ellipse;whiteSpace=wrap;html=1;fontStyle=1;fontSize=16;" parent="1" vertex="1">
          <mxGeometry x="240" y="330" width="140" height="70" as="geometry" />
        </mxCell>
        <mxCell id="wS7wnGFNPo0-zoAztSaw-8" value="Input Ujian" style="ellipse;whiteSpace=wrap;html=1;fontStyle=1;fontSize=16;" parent="1" vertex="1">
          <mxGeometry x="240" y="420" width="140" height="70" as="geometry" />
        </mxCell>
        <mxCell id="wS7wnGFNPo0-zoAztSaw-9" value="Log-out" style="ellipse;whiteSpace=wrap;html=1;fontStyle=1;fontSize=16;" parent="1" vertex="1">
          <mxGeometry x="240" y="515" width="140" height="70" as="geometry" />
        </mxCell>
        <mxCell id="wS7wnGFNPo0-zoAztSaw-10" style="rounded=0;orthogonalLoop=1;jettySize=auto;html=1;entryX=0.014;entryY=0.6;entryDx=0;entryDy=0;entryPerimeter=0;endArrow=none;endFill=0;" parent="1" source="wS7wnGFNPo0-zoAztSaw-2" target="wS7wnGFNPo0-zoAztSaw-4" edge="1">
          <mxGeometry relative="1" as="geometry" />
        </mxCell>
        <mxCell id="wS7wnGFNPo0-zoAztSaw-11" style="rounded=0;orthogonalLoop=1;jettySize=auto;html=1;entryX=0;entryY=0.5;entryDx=0;entryDy=0;endArrow=none;endFill=0;" parent="1" source="wS7wnGFNPo0-zoAztSaw-2" target="wS7wnGFNPo0-zoAztSaw-5" edge="1">
          <mxGeometry relative="1" as="geometry" />
        </mxCell>
        <mxCell id="wS7wnGFNPo0-zoAztSaw-16" value="Register" style="ellipse;whiteSpace=wrap;html=1;fontStyle=1;fontSize=16;" parent="1" vertex="1">
          <mxGeometry x="460" y="64" width="140" height="70" as="geometry" />
        </mxCell>
        <mxCell id="Ziqzh-IVuLRaMrgfS6KQ-2" style="rounded=0;orthogonalLoop=1;jettySize=auto;html=1;entryX=1;entryY=0.5;entryDx=0;entryDy=0;endArrow=none;endFill=0;" edge="1" parent="1" source="Ziqzh-IVuLRaMrgfS6KQ-1" target="wS7wnGFNPo0-zoAztSaw-6">
          <mxGeometry relative="1" as="geometry" />
        </mxCell>
        <mxCell id="Ziqzh-IVuLRaMrgfS6KQ-3" style="rounded=0;orthogonalLoop=1;jettySize=auto;html=1;entryX=1;entryY=0.5;entryDx=0;entryDy=0;endArrow=none;endFill=0;" edge="1" parent="1" source="Ziqzh-IVuLRaMrgfS6KQ-1" target="wS7wnGFNPo0-zoAztSaw-7">
          <mxGeometry relative="1" as="geometry" />
        </mxCell>
        <mxCell id="Ziqzh-IVuLRaMrgfS6KQ-4" style="rounded=0;orthogonalLoop=1;jettySize=auto;html=1;entryX=1;entryY=1;entryDx=0;entryDy=0;endArrow=none;endFill=0;" edge="1" parent="1" source="Ziqzh-IVuLRaMrgfS6KQ-1" target="wS7wnGFNPo0-zoAztSaw-4">
          <mxGeometry relative="1" as="geometry" />
        </mxCell>
        <mxCell id="Ziqzh-IVuLRaMrgfS6KQ-5" style="rounded=0;orthogonalLoop=1;jettySize=auto;html=1;entryX=1;entryY=0.5;entryDx=0;entryDy=0;endArrow=none;endFill=0;" edge="1" parent="1" source="Ziqzh-IVuLRaMrgfS6KQ-1" target="wS7wnGFNPo0-zoAztSaw-8">
          <mxGeometry relative="1" as="geometry" />
        </mxCell>
        <mxCell id="Ziqzh-IVuLRaMrgfS6KQ-6" style="rounded=0;orthogonalLoop=1;jettySize=auto;html=1;entryX=1;entryY=0.5;entryDx=0;entryDy=0;endArrow=none;endFill=0;" edge="1" parent="1" source="Ziqzh-IVuLRaMrgfS6KQ-1" target="wS7wnGFNPo0-zoAztSaw-9">
          <mxGeometry relative="1" as="geometry" />
        </mxCell>
        <mxCell id="Ziqzh-IVuLRaMrgfS6KQ-1" value="Actor" style="shape=umlActor;verticalLabelPosition=bottom;verticalAlign=top;html=1;" vertex="1" parent="1">
          <mxGeometry x="710" y="380" width="30" height="60" as="geometry" />
        </mxCell>
      </root>
    </mxGraphModel>
  </diagram>
  <diagram id="E6pzGqL0LQ3pdQPoG2Fh" name="activity login">
    <mxGraphModel dx="880" dy="472" grid="1" gridSize="10" guides="1" tooltips="1" connect="1" arrows="1" fold="1" page="1" pageScale="1" pageWidth="827" pageHeight="1169" math="0" shadow="0">
      <root>
        <mxCell id="0" />
        <mxCell id="1" parent="0" />
        <mxCell id="oEoX9vg_QUihV6HhKzU3-4" value="&lt;p style=&quot;margin: 4px 0px 0px; text-align: center; font-size: 15px;&quot;&gt;&lt;span style=&quot;font-size: 15px;&quot;&gt;actor&lt;/span&gt;&lt;/p&gt;" style="verticalAlign=top;align=left;overflow=fill;html=1;whiteSpace=wrap;fontStyle=1;fontSize=15;" parent="1" vertex="1">
          <mxGeometry x="80" y="40" width="240" height="530" as="geometry" />
        </mxCell>
        <mxCell id="oEoX9vg_QUihV6HhKzU3-6" value="&lt;p style=&quot;margin: 4px 0px 0px; text-align: center; font-size: 15px;&quot;&gt;&lt;span style=&quot;font-size: 15px;&quot;&gt;System&lt;/span&gt;&lt;/p&gt;" style="verticalAlign=top;align=left;overflow=fill;html=1;whiteSpace=wrap;fontStyle=1;fontSize=15;" parent="1" vertex="1">
          <mxGeometry x="320" y="40" width="240" height="530" as="geometry" />
        </mxCell>
        <mxCell id="oEoX9vg_QUihV6HhKzU3-7" value="" style="ellipse;html=1;shape=startState;fillColor=#000000;strokeColor=#ff0000;fontStyle=1;fontSize=15;" parent="1" vertex="1">
          <mxGeometry x="185" y="80" width="30" height="30" as="geometry" />
        </mxCell>
        <mxCell id="oEoX9vg_QUihV6HhKzU3-8" value="" style="edgeStyle=orthogonalEdgeStyle;html=1;verticalAlign=bottom;endArrow=open;endSize=8;strokeColor=#ff0000;rounded=0;fontStyle=1;fontSize=15;" parent="1" source="oEoX9vg_QUihV6HhKzU3-7" edge="1">
          <mxGeometry relative="1" as="geometry">
            <mxPoint x="200" y="140" as="targetPoint" />
          </mxGeometry>
        </mxCell>
        <mxCell id="oEoX9vg_QUihV6HhKzU3-9" value="login" style="rounded=1;whiteSpace=wrap;html=1;arcSize=40;fontColor=#000000;fillColor=#ffffc0;strokeColor=#ff0000;fontStyle=1;fontSize=15;" parent="1" vertex="1">
          <mxGeometry x="140" y="140" width="120" height="40" as="geometry" />
        </mxCell>
        <mxCell id="oEoX9vg_QUihV6HhKzU3-10" value="" style="edgeStyle=orthogonalEdgeStyle;html=1;verticalAlign=bottom;endArrow=open;endSize=8;strokeColor=#ff0000;rounded=0;entryX=0.034;entryY=0.617;entryDx=0;entryDy=0;entryPerimeter=0;fontStyle=1;fontSize=15;" parent="1" source="oEoX9vg_QUihV6HhKzU3-9" target="oEoX9vg_QUihV6HhKzU3-11" edge="1">
          <mxGeometry relative="1" as="geometry">
            <mxPoint x="200" y="270" as="targetPoint" />
          </mxGeometry>
        </mxCell>
        <mxCell id="oEoX9vg_QUihV6HhKzU3-11" value="penampilan login" style="rounded=1;whiteSpace=wrap;html=1;arcSize=40;fontColor=#000000;fillColor=#ffffc0;strokeColor=#ff0000;fontStyle=1;fontSize=15;" parent="1" vertex="1">
          <mxGeometry x="380" y="135" width="120" height="40" as="geometry" />
        </mxCell>
        <mxCell id="oEoX9vg_QUihV6HhKzU3-12" value="" style="edgeStyle=orthogonalEdgeStyle;html=1;verticalAlign=bottom;endArrow=open;endSize=8;strokeColor=#ff0000;rounded=0;fontStyle=1;fontSize=15;" parent="1" source="oEoX9vg_QUihV6HhKzU3-11" target="oEoX9vg_QUihV6HhKzU3-16" edge="1">
          <mxGeometry relative="1" as="geometry">
            <mxPoint x="440" y="230" as="targetPoint" />
            <Array as="points">
              <mxPoint x="440" y="200" />
              <mxPoint x="200" y="200" />
            </Array>
          </mxGeometry>
        </mxCell>
        <mxCell id="oEoX9vg_QUihV6HhKzU3-13" value="Condition" style="rhombus;whiteSpace=wrap;html=1;fontColor=#000000;fillColor=#ffffc0;strokeColor=#ff0000;fontStyle=1;fontSize=12;" parent="1" vertex="1">
          <mxGeometry x="400" y="300" width="80" height="40" as="geometry" />
        </mxCell>
        <mxCell id="oEoX9vg_QUihV6HhKzU3-14" value="" style="edgeStyle=orthogonalEdgeStyle;html=1;align=left;verticalAlign=bottom;endArrow=open;endSize=8;strokeColor=#ff0000;rounded=0;entryX=0.5;entryY=1;entryDx=0;entryDy=0;fontStyle=1;fontSize=15;" parent="1" source="oEoX9vg_QUihV6HhKzU3-13" target="oEoX9vg_QUihV6HhKzU3-16" edge="1">
          <mxGeometry x="-1" relative="1" as="geometry">
            <mxPoint x="580" y="320" as="targetPoint" />
          </mxGeometry>
        </mxCell>
        <mxCell id="UzoSkusklfQtTcCvssW8-1" value="login gagal" style="edgeLabel;html=1;align=center;verticalAlign=middle;resizable=0;points=[];fontStyle=1;fontSize=12;" vertex="1" connectable="0" parent="oEoX9vg_QUihV6HhKzU3-14">
          <mxGeometry x="-0.24" y="2" relative="1" as="geometry">
            <mxPoint x="15" y="-2" as="offset" />
          </mxGeometry>
        </mxCell>
        <mxCell id="oEoX9vg_QUihV6HhKzU3-15" value="" style="edgeStyle=orthogonalEdgeStyle;html=1;align=left;verticalAlign=top;endArrow=open;endSize=8;strokeColor=#ff0000;rounded=0;fontStyle=1;fontSize=15;" parent="1" source="oEoX9vg_QUihV6HhKzU3-13" edge="1">
          <mxGeometry x="-1" relative="1" as="geometry">
            <mxPoint x="440" y="400" as="targetPoint" />
          </mxGeometry>
        </mxCell>
        <mxCell id="UzoSkusklfQtTcCvssW8-2" value="&lt;b&gt;&lt;font style=&quot;font-size: 12px;&quot;&gt;login berhasil&lt;/font&gt;&lt;/b&gt;" style="edgeLabel;html=1;align=center;verticalAlign=middle;resizable=0;points=[];" vertex="1" connectable="0" parent="oEoX9vg_QUihV6HhKzU3-15">
          <mxGeometry x="-0.0414" relative="1" as="geometry">
            <mxPoint as="offset" />
          </mxGeometry>
        </mxCell>
        <mxCell id="oEoX9vg_QUihV6HhKzU3-16" value="mengisi username dan password" style="rounded=1;whiteSpace=wrap;html=1;arcSize=40;fontColor=#000000;fillColor=#ffffc0;strokeColor=#ff0000;fontStyle=1;fontSize=15;" parent="1" vertex="1">
          <mxGeometry x="130" y="210" width="140" height="60" as="geometry" />
        </mxCell>
        <mxCell id="oEoX9vg_QUihV6HhKzU3-17" value="" style="edgeStyle=orthogonalEdgeStyle;html=1;verticalAlign=bottom;endArrow=open;endSize=8;strokeColor=#ff0000;rounded=0;entryX=0;entryY=0.5;entryDx=0;entryDy=0;fontStyle=1;fontSize=15;" parent="1" source="oEoX9vg_QUihV6HhKzU3-16" target="oEoX9vg_QUihV6HhKzU3-18" edge="1">
          <mxGeometry relative="1" as="geometry">
            <mxPoint x="200" y="320" as="targetPoint" />
          </mxGeometry>
        </mxCell>
        <mxCell id="oEoX9vg_QUihV6HhKzU3-18" value="validasi" style="rounded=1;whiteSpace=wrap;html=1;arcSize=40;fontColor=#000000;fillColor=#ffffc0;strokeColor=#ff0000;fontStyle=1;fontSize=15;" parent="1" vertex="1">
          <mxGeometry x="380" y="220" width="120" height="40" as="geometry" />
        </mxCell>
        <mxCell id="oEoX9vg_QUihV6HhKzU3-19" value="" style="edgeStyle=orthogonalEdgeStyle;html=1;verticalAlign=bottom;endArrow=open;endSize=8;strokeColor=#ff0000;rounded=0;fontStyle=1;fontSize=15;" parent="1" source="oEoX9vg_QUihV6HhKzU3-18" edge="1">
          <mxGeometry relative="1" as="geometry">
            <mxPoint x="440" y="300" as="targetPoint" />
          </mxGeometry>
        </mxCell>
        <mxCell id="oEoX9vg_QUihV6HhKzU3-20" value="menu utama" style="rounded=1;whiteSpace=wrap;html=1;arcSize=40;fontColor=#000000;fillColor=#ffffc0;strokeColor=#ff0000;fontStyle=1;fontSize=15;" parent="1" vertex="1">
          <mxGeometry x="380" y="400" width="120" height="40" as="geometry" />
        </mxCell>
        <mxCell id="oEoX9vg_QUihV6HhKzU3-21" value="" style="edgeStyle=orthogonalEdgeStyle;html=1;verticalAlign=bottom;endArrow=open;endSize=8;strokeColor=#ff0000;rounded=0;fontStyle=1;fontSize=15;" parent="1" source="oEoX9vg_QUihV6HhKzU3-20" edge="1">
          <mxGeometry relative="1" as="geometry">
            <mxPoint x="440" y="500" as="targetPoint" />
          </mxGeometry>
        </mxCell>
        <mxCell id="oEoX9vg_QUihV6HhKzU3-22" value="" style="ellipse;html=1;shape=endState;fillColor=#000000;strokeColor=#ff0000;fontStyle=1;fontSize=15;" parent="1" vertex="1">
          <mxGeometry x="425" y="500" width="30" height="30" as="geometry" />
        </mxCell>
      </root>
    </mxGraphModel>
  </diagram>
  <diagram id="nbmUJZvEFdald0OGjBH3" name="activity(data user)">
    <mxGraphModel dx="765" dy="410" grid="1" gridSize="10" guides="1" tooltips="1" connect="1" arrows="1" fold="1" page="1" pageScale="1" pageWidth="827" pageHeight="1169" math="0" shadow="0">
      <root>
        <mxCell id="0" />
        <mxCell id="1" parent="0" />
        <mxCell id="E4xml3_DTlIScEea30z--1" value="&lt;p style=&quot;margin: 4px 0px 0px; text-align: center; font-size: 15px;&quot;&gt;&lt;span style=&quot;font-size: 15px;&quot;&gt;actor&lt;/span&gt;&lt;/p&gt;" style="verticalAlign=top;align=left;overflow=fill;html=1;whiteSpace=wrap;fontStyle=1;fontSize=15;" vertex="1" parent="1">
          <mxGeometry x="80" y="40" width="240" height="570" as="geometry" />
        </mxCell>
        <mxCell id="E4xml3_DTlIScEea30z--2" value="&lt;p style=&quot;margin: 4px 0px 0px; text-align: center; font-size: 15px;&quot;&gt;&lt;span style=&quot;font-size: 15px;&quot;&gt;Sistem&lt;/span&gt;&lt;/p&gt;" style="verticalAlign=top;align=left;overflow=fill;html=1;whiteSpace=wrap;fontStyle=1;fontSize=15;" vertex="1" parent="1">
          <mxGeometry x="320" y="40" width="240" height="570" as="geometry" />
        </mxCell>
        <mxCell id="E4xml3_DTlIScEea30z--3" value="" style="ellipse;html=1;shape=startState;fillColor=#000000;strokeColor=#ff0000;fontStyle=1;fontSize=15;" vertex="1" parent="1">
          <mxGeometry x="185" y="80" width="30" height="30" as="geometry" />
        </mxCell>
        <mxCell id="E4xml3_DTlIScEea30z--4" value="" style="edgeStyle=orthogonalEdgeStyle;html=1;verticalAlign=bottom;endArrow=open;endSize=8;strokeColor=#ff0000;rounded=0;fontStyle=1;fontSize=15;" edge="1" source="E4xml3_DTlIScEea30z--3" parent="1">
          <mxGeometry relative="1" as="geometry">
            <mxPoint x="200" y="140" as="targetPoint" />
          </mxGeometry>
        </mxCell>
        <mxCell id="E4xml3_DTlIScEea30z--5" value="tambah&amp;nbsp;" style="rounded=1;whiteSpace=wrap;html=1;arcSize=40;fontColor=#000000;fillColor=#ffffc0;strokeColor=#ff0000;fontStyle=1;fontSize=15;" vertex="1" parent="1">
          <mxGeometry x="140" y="140" width="120" height="40" as="geometry" />
        </mxCell>
        <mxCell id="E4xml3_DTlIScEea30z--6" value="" style="edgeStyle=orthogonalEdgeStyle;html=1;verticalAlign=bottom;endArrow=open;endSize=8;strokeColor=#ff0000;rounded=0;fontStyle=1;fontSize=15;" edge="1" source="E4xml3_DTlIScEea30z--5" parent="1" target="E4xml3_DTlIScEea30z--9">
          <mxGeometry relative="1" as="geometry">
            <mxPoint x="200" y="240" as="targetPoint" />
          </mxGeometry>
        </mxCell>
        <mxCell id="E4xml3_DTlIScEea30z--7" value="mengisi data user" style="rounded=1;whiteSpace=wrap;html=1;arcSize=40;fontColor=#000000;fillColor=#ffffc0;strokeColor=#ff0000;fontStyle=1;fontSize=15;" vertex="1" parent="1">
          <mxGeometry x="140" y="209" width="120" height="40" as="geometry" />
        </mxCell>
        <mxCell id="E4xml3_DTlIScEea30z--8" value="" style="edgeStyle=orthogonalEdgeStyle;html=1;verticalAlign=bottom;endArrow=open;endSize=8;strokeColor=#ff0000;rounded=0;entryX=0;entryY=0.5;entryDx=0;entryDy=0;fontStyle=1;fontSize=15;" edge="1" source="E4xml3_DTlIScEea30z--7" parent="1" target="E4xml3_DTlIScEea30z--11">
          <mxGeometry relative="1" as="geometry">
            <mxPoint x="390" y="300" as="targetPoint" />
          </mxGeometry>
        </mxCell>
        <mxCell id="E4xml3_DTlIScEea30z--9" value="tampilan user" style="rounded=1;whiteSpace=wrap;html=1;arcSize=40;fontColor=#000000;fillColor=#ffffc0;strokeColor=#ff0000;fontStyle=1;fontSize=15;" vertex="1" parent="1">
          <mxGeometry x="380" y="140" width="120" height="40" as="geometry" />
        </mxCell>
        <mxCell id="E4xml3_DTlIScEea30z--10" value="" style="edgeStyle=orthogonalEdgeStyle;html=1;verticalAlign=bottom;endArrow=open;endSize=8;strokeColor=#ff0000;rounded=0;entryX=0.451;entryY=0.098;entryDx=0;entryDy=0;entryPerimeter=0;fontStyle=1;fontSize=15;" edge="1" source="E4xml3_DTlIScEea30z--9" parent="1" target="E4xml3_DTlIScEea30z--7">
          <mxGeometry relative="1" as="geometry">
            <mxPoint x="440" y="230" as="targetPoint" />
            <Array as="points">
              <mxPoint x="440" y="190" />
              <mxPoint x="194" y="190" />
            </Array>
          </mxGeometry>
        </mxCell>
        <mxCell id="E4xml3_DTlIScEea30z--11" value="validasi" style="rounded=1;whiteSpace=wrap;html=1;arcSize=40;fontColor=#000000;fillColor=#ffffc0;strokeColor=#ff0000;fontStyle=1;fontSize=15;" vertex="1" parent="1">
          <mxGeometry x="380" y="209" width="120" height="40" as="geometry" />
        </mxCell>
        <mxCell id="E4xml3_DTlIScEea30z--12" value="" style="edgeStyle=orthogonalEdgeStyle;html=1;verticalAlign=bottom;endArrow=open;endSize=8;strokeColor=#ff0000;rounded=0;fontStyle=1;fontSize=15;" edge="1" source="E4xml3_DTlIScEea30z--11" parent="1">
          <mxGeometry relative="1" as="geometry">
            <mxPoint x="440" y="320" as="targetPoint" />
          </mxGeometry>
        </mxCell>
        <mxCell id="E4xml3_DTlIScEea30z--13" value="Condition" style="rhombus;whiteSpace=wrap;html=1;fontColor=#000000;fillColor=#ffffc0;strokeColor=#ff0000;fontStyle=1;fontSize=12;" vertex="1" parent="1">
          <mxGeometry x="400" y="285" width="80" height="40" as="geometry" />
        </mxCell>
        <mxCell id="E4xml3_DTlIScEea30z--14" value="" style="edgeStyle=orthogonalEdgeStyle;html=1;align=left;verticalAlign=bottom;endArrow=open;endSize=8;strokeColor=#ff0000;rounded=0;entryX=0.5;entryY=1;entryDx=0;entryDy=0;fontStyle=1;fontSize=15;" edge="1" source="E4xml3_DTlIScEea30z--13" parent="1" target="E4xml3_DTlIScEea30z--7">
          <mxGeometry x="-1" relative="1" as="geometry">
            <mxPoint x="580" y="340" as="targetPoint" />
          </mxGeometry>
        </mxCell>
        <mxCell id="E4xml3_DTlIScEea30z--24" value="&lt;b&gt;&lt;font style=&quot;font-size: 12px;&quot;&gt;data gagal&lt;/font&gt;&lt;/b&gt;" style="edgeLabel;html=1;align=center;verticalAlign=middle;resizable=0;points=[];" vertex="1" connectable="0" parent="E4xml3_DTlIScEea30z--14">
          <mxGeometry x="-0.3624" y="-1" relative="1" as="geometry">
            <mxPoint as="offset" />
          </mxGeometry>
        </mxCell>
        <mxCell id="E4xml3_DTlIScEea30z--15" value="" style="edgeStyle=orthogonalEdgeStyle;html=1;align=left;verticalAlign=top;endArrow=open;endSize=8;strokeColor=#ff0000;rounded=0;entryX=0.5;entryY=0;entryDx=0;entryDy=0;fontStyle=1;fontSize=15;" edge="1" source="E4xml3_DTlIScEea30z--13" parent="1" target="E4xml3_DTlIScEea30z--19">
          <mxGeometry x="-1" relative="1" as="geometry">
            <mxPoint x="440" y="420" as="targetPoint" />
          </mxGeometry>
        </mxCell>
        <mxCell id="E4xml3_DTlIScEea30z--25" value="&lt;b&gt;&lt;font style=&quot;font-size: 12px;&quot;&gt;data berhasil&lt;/font&gt;&lt;/b&gt;" style="edgeLabel;html=1;align=center;verticalAlign=middle;resizable=0;points=[];" vertex="1" connectable="0" parent="E4xml3_DTlIScEea30z--15">
          <mxGeometry x="-0.0909" y="-1" relative="1" as="geometry">
            <mxPoint as="offset" />
          </mxGeometry>
        </mxCell>
        <mxCell id="E4xml3_DTlIScEea30z--16" value="&lt;p style=&quot;margin: 4px 0px 0px; text-align: center; font-size: 15px;&quot;&gt;&lt;span style=&quot;font-size: 15px;&quot;&gt;database&lt;/span&gt;&lt;/p&gt;" style="verticalAlign=top;align=left;overflow=fill;html=1;whiteSpace=wrap;fontStyle=1;fontSize=15;" vertex="1" parent="1">
          <mxGeometry x="560" y="40" width="240" height="570" as="geometry" />
        </mxCell>
        <mxCell id="E4xml3_DTlIScEea30z--17" value="data disimpan" style="rounded=1;whiteSpace=wrap;html=1;arcSize=40;fontColor=#000000;fillColor=#ffffc0;strokeColor=#ff0000;fontStyle=1;fontSize=15;" vertex="1" parent="1">
          <mxGeometry x="620" y="285" width="120" height="40" as="geometry" />
        </mxCell>
        <mxCell id="E4xml3_DTlIScEea30z--18" value="" style="edgeStyle=orthogonalEdgeStyle;html=1;verticalAlign=bottom;endArrow=none;endSize=8;strokeColor=#ff0000;rounded=0;entryX=1;entryY=0.5;entryDx=0;entryDy=0;startArrow=classic;startFill=1;endFill=0;fontStyle=1;fontSize=15;" edge="1" source="E4xml3_DTlIScEea30z--17" parent="1" target="E4xml3_DTlIScEea30z--13">
          <mxGeometry relative="1" as="geometry">
            <mxPoint x="680" y="420" as="targetPoint" />
          </mxGeometry>
        </mxCell>
        <mxCell id="E4xml3_DTlIScEea30z--19" value="tampilan data user yang sudah di input" style="rounded=1;whiteSpace=wrap;html=1;arcSize=40;fontColor=#000000;fillColor=#ffffc0;strokeColor=#ff0000;fontStyle=1;fontSize=15;" vertex="1" parent="1">
          <mxGeometry x="365" y="370" width="150" height="70" as="geometry" />
        </mxCell>
        <mxCell id="E4xml3_DTlIScEea30z--20" value="" style="edgeStyle=orthogonalEdgeStyle;html=1;verticalAlign=bottom;endArrow=open;endSize=8;strokeColor=#ff0000;rounded=0;fontStyle=1;fontSize=15;" edge="1" source="E4xml3_DTlIScEea30z--19" parent="1" target="ve2iGgPaP00YLMXV65On-2">
          <mxGeometry relative="1" as="geometry">
            <mxPoint x="440" y="490" as="targetPoint" />
          </mxGeometry>
        </mxCell>
        <mxCell id="E4xml3_DTlIScEea30z--21" value="" style="ellipse;html=1;shape=endState;fillColor=#000000;strokeColor=#ff0000;fontStyle=1;fontSize=15;" vertex="1" parent="1">
          <mxGeometry x="425" y="555" width="30" height="30" as="geometry" />
        </mxCell>
        <mxCell id="ve2iGgPaP00YLMXV65On-2" value="menu utama" style="rounded=1;whiteSpace=wrap;html=1;arcSize=40;fontColor=#000000;fillColor=#ffffc0;strokeColor=#ff0000;fontStyle=1;fontSize=15;" vertex="1" parent="1">
          <mxGeometry x="380" y="480.0000000000001" width="120" height="40" as="geometry" />
        </mxCell>
        <mxCell id="ve2iGgPaP00YLMXV65On-5" value="" style="edgeStyle=orthogonalEdgeStyle;html=1;verticalAlign=bottom;endArrow=open;endSize=8;strokeColor=#ff0000;rounded=0;fontStyle=1;fontSize=15;exitX=0.5;exitY=1;exitDx=0;exitDy=0;entryX=0.5;entryY=0;entryDx=0;entryDy=0;" edge="1" parent="1" source="ve2iGgPaP00YLMXV65On-2" target="E4xml3_DTlIScEea30z--21">
          <mxGeometry relative="1" as="geometry">
            <mxPoint x="450" y="480" as="targetPoint" />
            <mxPoint x="450" y="450" as="sourcePoint" />
          </mxGeometry>
        </mxCell>
      </root>
    </mxGraphModel>
  </diagram>
  <diagram id="G8776updZxRveQPuWOuL" name="activity(data siswa)">
    <mxGraphModel dx="880" dy="472" grid="1" gridSize="10" guides="1" tooltips="1" connect="1" arrows="1" fold="1" page="1" pageScale="1" pageWidth="827" pageHeight="1169" math="0" shadow="0">
      <root>
        <mxCell id="0" />
        <mxCell id="1" parent="0" />
        <mxCell id="ogCucVIHI9nPGwu8JnVY-1" value="&lt;p style=&quot;margin: 4px 0px 0px; text-align: center; font-size: 15px;&quot;&gt;&lt;span style=&quot;font-size: 15px;&quot;&gt;actor&lt;/span&gt;&lt;/p&gt;" style="verticalAlign=top;align=left;overflow=fill;html=1;whiteSpace=wrap;fontStyle=1;fontSize=15;" vertex="1" parent="1">
          <mxGeometry x="80" y="40" width="240" height="620" as="geometry" />
        </mxCell>
        <mxCell id="ogCucVIHI9nPGwu8JnVY-2" value="&lt;p style=&quot;margin: 4px 0px 0px; text-align: center; font-size: 15px;&quot;&gt;&lt;span style=&quot;font-size: 15px;&quot;&gt;Sistem&lt;/span&gt;&lt;/p&gt;" style="verticalAlign=top;align=left;overflow=fill;html=1;whiteSpace=wrap;fontStyle=1;fontSize=15;" vertex="1" parent="1">
          <mxGeometry x="320" y="40" width="240" height="620" as="geometry" />
        </mxCell>
        <mxCell id="ogCucVIHI9nPGwu8JnVY-3" value="" style="ellipse;html=1;shape=startState;fillColor=#000000;strokeColor=#ff0000;fontStyle=1;fontSize=15;" vertex="1" parent="1">
          <mxGeometry x="185" y="80" width="30" height="30" as="geometry" />
        </mxCell>
        <mxCell id="ogCucVIHI9nPGwu8JnVY-4" value="" style="edgeStyle=orthogonalEdgeStyle;html=1;verticalAlign=bottom;endArrow=open;endSize=8;strokeColor=#ff0000;rounded=0;fontStyle=1;fontSize=15;" edge="1" parent="1" source="ogCucVIHI9nPGwu8JnVY-3">
          <mxGeometry relative="1" as="geometry">
            <mxPoint x="200" y="140" as="targetPoint" />
          </mxGeometry>
        </mxCell>
        <mxCell id="ogCucVIHI9nPGwu8JnVY-5" value="tambah siswa" style="rounded=1;whiteSpace=wrap;html=1;arcSize=40;fontColor=#000000;fillColor=#ffffc0;strokeColor=#ff0000;fontStyle=1;fontSize=15;" vertex="1" parent="1">
          <mxGeometry x="140" y="140" width="120" height="40" as="geometry" />
        </mxCell>
        <mxCell id="ogCucVIHI9nPGwu8JnVY-6" value="" style="edgeStyle=orthogonalEdgeStyle;html=1;verticalAlign=bottom;endArrow=open;endSize=8;strokeColor=#ff0000;rounded=0;fontStyle=1;fontSize=15;" edge="1" parent="1" source="ogCucVIHI9nPGwu8JnVY-5" target="ogCucVIHI9nPGwu8JnVY-9">
          <mxGeometry relative="1" as="geometry">
            <mxPoint x="200" y="240" as="targetPoint" />
          </mxGeometry>
        </mxCell>
        <mxCell id="ogCucVIHI9nPGwu8JnVY-7" value="mengisi data siswa" style="rounded=1;whiteSpace=wrap;html=1;arcSize=40;fontColor=#000000;fillColor=#ffffc0;strokeColor=#ff0000;fontStyle=1;fontSize=15;" vertex="1" parent="1">
          <mxGeometry x="140" y="209" width="120" height="40" as="geometry" />
        </mxCell>
        <mxCell id="ogCucVIHI9nPGwu8JnVY-8" value="" style="edgeStyle=orthogonalEdgeStyle;html=1;verticalAlign=bottom;endArrow=open;endSize=8;strokeColor=#ff0000;rounded=0;entryX=0;entryY=0.5;entryDx=0;entryDy=0;fontStyle=1;fontSize=15;" edge="1" parent="1" source="ogCucVIHI9nPGwu8JnVY-7" target="ogCucVIHI9nPGwu8JnVY-11">
          <mxGeometry relative="1" as="geometry">
            <mxPoint x="390" y="300" as="targetPoint" />
          </mxGeometry>
        </mxCell>
        <mxCell id="ogCucVIHI9nPGwu8JnVY-9" value="tampilan siswa" style="rounded=1;whiteSpace=wrap;html=1;arcSize=40;fontColor=#000000;fillColor=#ffffc0;strokeColor=#ff0000;fontStyle=1;fontSize=15;" vertex="1" parent="1">
          <mxGeometry x="380" y="140" width="120" height="40" as="geometry" />
        </mxCell>
        <mxCell id="ogCucVIHI9nPGwu8JnVY-10" value="" style="edgeStyle=orthogonalEdgeStyle;html=1;verticalAlign=bottom;endArrow=open;endSize=8;strokeColor=#ff0000;rounded=0;entryX=0.451;entryY=0.098;entryDx=0;entryDy=0;entryPerimeter=0;fontStyle=1;fontSize=15;" edge="1" parent="1" source="ogCucVIHI9nPGwu8JnVY-9" target="ogCucVIHI9nPGwu8JnVY-7">
          <mxGeometry relative="1" as="geometry">
            <mxPoint x="440" y="230" as="targetPoint" />
            <Array as="points">
              <mxPoint x="440" y="190" />
              <mxPoint x="194" y="190" />
            </Array>
          </mxGeometry>
        </mxCell>
        <mxCell id="ogCucVIHI9nPGwu8JnVY-11" value="validasi" style="rounded=1;whiteSpace=wrap;html=1;arcSize=40;fontColor=#000000;fillColor=#ffffc0;strokeColor=#ff0000;fontStyle=1;fontSize=15;" vertex="1" parent="1">
          <mxGeometry x="380" y="209" width="120" height="40" as="geometry" />
        </mxCell>
        <mxCell id="ogCucVIHI9nPGwu8JnVY-12" value="" style="edgeStyle=orthogonalEdgeStyle;html=1;verticalAlign=bottom;endArrow=open;endSize=8;strokeColor=#ff0000;rounded=0;fontStyle=1;fontSize=15;" edge="1" parent="1" source="ogCucVIHI9nPGwu8JnVY-11">
          <mxGeometry relative="1" as="geometry">
            <mxPoint x="440" y="320" as="targetPoint" />
          </mxGeometry>
        </mxCell>
        <mxCell id="ogCucVIHI9nPGwu8JnVY-13" value="Condition" style="rhombus;whiteSpace=wrap;html=1;fontColor=#000000;fillColor=#ffffc0;strokeColor=#ff0000;fontStyle=1;fontSize=12;" vertex="1" parent="1">
          <mxGeometry x="400" y="285" width="80" height="40" as="geometry" />
        </mxCell>
        <mxCell id="ogCucVIHI9nPGwu8JnVY-14" value="" style="edgeStyle=orthogonalEdgeStyle;html=1;align=left;verticalAlign=bottom;endArrow=open;endSize=8;strokeColor=#ff0000;rounded=0;entryX=0.5;entryY=1;entryDx=0;entryDy=0;fontStyle=1;fontSize=15;" edge="1" parent="1" source="ogCucVIHI9nPGwu8JnVY-13" target="ogCucVIHI9nPGwu8JnVY-7">
          <mxGeometry x="-1" relative="1" as="geometry">
            <mxPoint x="580" y="340" as="targetPoint" />
          </mxGeometry>
        </mxCell>
        <mxCell id="ogCucVIHI9nPGwu8JnVY-15" value="&lt;b&gt;&lt;font style=&quot;font-size: 12px;&quot;&gt;data gagal&lt;/font&gt;&lt;/b&gt;" style="edgeLabel;html=1;align=center;verticalAlign=middle;resizable=0;points=[];" vertex="1" connectable="0" parent="ogCucVIHI9nPGwu8JnVY-14">
          <mxGeometry x="-0.3624" y="-1" relative="1" as="geometry">
            <mxPoint as="offset" />
          </mxGeometry>
        </mxCell>
        <mxCell id="ogCucVIHI9nPGwu8JnVY-16" value="" style="edgeStyle=orthogonalEdgeStyle;html=1;align=left;verticalAlign=top;endArrow=open;endSize=8;strokeColor=#ff0000;rounded=0;entryX=0.5;entryY=0;entryDx=0;entryDy=0;fontStyle=1;fontSize=15;" edge="1" parent="1" source="ogCucVIHI9nPGwu8JnVY-13" target="ogCucVIHI9nPGwu8JnVY-21">
          <mxGeometry x="-1" relative="1" as="geometry">
            <mxPoint x="440" y="420" as="targetPoint" />
          </mxGeometry>
        </mxCell>
        <mxCell id="ogCucVIHI9nPGwu8JnVY-17" value="&lt;b&gt;&lt;font style=&quot;font-size: 12px;&quot;&gt;data berhasil&lt;/font&gt;&lt;/b&gt;" style="edgeLabel;html=1;align=center;verticalAlign=middle;resizable=0;points=[];" vertex="1" connectable="0" parent="ogCucVIHI9nPGwu8JnVY-16">
          <mxGeometry x="-0.0909" y="-1" relative="1" as="geometry">
            <mxPoint as="offset" />
          </mxGeometry>
        </mxCell>
        <mxCell id="ogCucVIHI9nPGwu8JnVY-18" value="&lt;p style=&quot;margin: 4px 0px 0px; text-align: center; font-size: 15px;&quot;&gt;&lt;span style=&quot;font-size: 15px;&quot;&gt;database&lt;/span&gt;&lt;/p&gt;" style="verticalAlign=top;align=left;overflow=fill;html=1;whiteSpace=wrap;fontStyle=1;fontSize=15;" vertex="1" parent="1">
          <mxGeometry x="560" y="40" width="240" height="620" as="geometry" />
        </mxCell>
        <mxCell id="ogCucVIHI9nPGwu8JnVY-19" value="data disimpan" style="rounded=1;whiteSpace=wrap;html=1;arcSize=40;fontColor=#000000;fillColor=#ffffc0;strokeColor=#ff0000;fontStyle=1;fontSize=15;" vertex="1" parent="1">
          <mxGeometry x="620" y="285" width="120" height="40" as="geometry" />
        </mxCell>
        <mxCell id="ogCucVIHI9nPGwu8JnVY-20" value="" style="edgeStyle=orthogonalEdgeStyle;html=1;verticalAlign=bottom;endArrow=none;endSize=8;strokeColor=#ff0000;rounded=0;entryX=1;entryY=0.5;entryDx=0;entryDy=0;startArrow=classic;startFill=1;endFill=0;fontStyle=1;fontSize=15;" edge="1" parent="1" source="ogCucVIHI9nPGwu8JnVY-19" target="ogCucVIHI9nPGwu8JnVY-13">
          <mxGeometry relative="1" as="geometry">
            <mxPoint x="680" y="420" as="targetPoint" />
          </mxGeometry>
        </mxCell>
        <mxCell id="ogCucVIHI9nPGwu8JnVY-21" value="tampilan data siswa yang sudah di input" style="rounded=1;whiteSpace=wrap;html=1;arcSize=40;fontColor=#000000;fillColor=#ffffc0;strokeColor=#ff0000;fontStyle=1;fontSize=15;" vertex="1" parent="1">
          <mxGeometry x="365" y="370" width="150" height="70" as="geometry" />
        </mxCell>
        <mxCell id="ogCucVIHI9nPGwu8JnVY-23" value="" style="ellipse;html=1;shape=endState;fillColor=#000000;strokeColor=#ff0000;fontStyle=1;fontSize=15;" vertex="1" parent="1">
          <mxGeometry x="425" y="561" width="30" height="30" as="geometry" />
        </mxCell>
        <mxCell id="HA7x2awvMydFmuHQ-gvZ-1" value="menu utama" style="rounded=1;whiteSpace=wrap;html=1;arcSize=40;fontColor=#000000;fillColor=#ffffc0;strokeColor=#ff0000;fontStyle=1;fontSize=15;" vertex="1" parent="1">
          <mxGeometry x="380" y="480.0000000000001" width="120" height="40" as="geometry" />
        </mxCell>
        <mxCell id="HA7x2awvMydFmuHQ-gvZ-2" value="" style="edgeStyle=orthogonalEdgeStyle;html=1;verticalAlign=bottom;endArrow=none;endSize=8;strokeColor=#ff0000;rounded=0;entryX=0.5;entryY=1;entryDx=0;entryDy=0;startArrow=classic;startFill=1;endFill=0;fontStyle=1;fontSize=15;exitX=0.5;exitY=0;exitDx=0;exitDy=0;" edge="1" parent="1" source="HA7x2awvMydFmuHQ-gvZ-1" target="ogCucVIHI9nPGwu8JnVY-21">
          <mxGeometry relative="1" as="geometry">
            <mxPoint x="490" y="315" as="targetPoint" />
            <mxPoint x="630" y="315" as="sourcePoint" />
          </mxGeometry>
        </mxCell>
        <mxCell id="HA7x2awvMydFmuHQ-gvZ-3" value="" style="edgeStyle=orthogonalEdgeStyle;html=1;verticalAlign=bottom;endArrow=none;endSize=8;strokeColor=#ff0000;rounded=0;entryX=0.5;entryY=1;entryDx=0;entryDy=0;startArrow=classic;startFill=1;endFill=0;fontStyle=1;fontSize=15;" edge="1" parent="1" target="HA7x2awvMydFmuHQ-gvZ-1">
          <mxGeometry relative="1" as="geometry">
            <mxPoint x="450" y="450" as="targetPoint" />
            <mxPoint x="440" y="560" as="sourcePoint" />
          </mxGeometry>
        </mxCell>
      </root>
    </mxGraphModel>
  </diagram>
  <diagram id="W13kn0aZTNDIwamhMbAs" name="activity(mata pelajaran)">
    <mxGraphModel dx="391" dy="210" grid="1" gridSize="10" guides="1" tooltips="1" connect="1" arrows="1" fold="1" page="1" pageScale="1" pageWidth="827" pageHeight="1169" math="0" shadow="0">
      <root>
        <mxCell id="0" />
        <mxCell id="1" parent="0" />
        <mxCell id="L43MrZcThB9rU_nbSlUN-1" value="&lt;p style=&quot;margin: 4px 0px 0px; text-align: center; font-size: 15px;&quot;&gt;&lt;span style=&quot;font-size: 15px;&quot;&gt;actor&lt;/span&gt;&lt;/p&gt;" style="verticalAlign=top;align=left;overflow=fill;html=1;whiteSpace=wrap;fontStyle=1;fontSize=15;" vertex="1" parent="1">
          <mxGeometry x="80" y="40" width="240" height="610" as="geometry" />
        </mxCell>
        <mxCell id="L43MrZcThB9rU_nbSlUN-2" value="&lt;p style=&quot;margin: 4px 0px 0px; text-align: center; font-size: 15px;&quot;&gt;&lt;span style=&quot;font-size: 15px;&quot;&gt;Sistem&lt;/span&gt;&lt;/p&gt;" style="verticalAlign=top;align=left;overflow=fill;html=1;whiteSpace=wrap;fontStyle=1;fontSize=15;" vertex="1" parent="1">
          <mxGeometry x="320" y="40" width="240" height="610" as="geometry" />
        </mxCell>
        <mxCell id="L43MrZcThB9rU_nbSlUN-3" value="" style="ellipse;html=1;shape=startState;fillColor=#000000;strokeColor=#ff0000;fontStyle=1;fontSize=15;" vertex="1" parent="1">
          <mxGeometry x="185" y="80" width="30" height="30" as="geometry" />
        </mxCell>
        <mxCell id="L43MrZcThB9rU_nbSlUN-4" value="" style="edgeStyle=orthogonalEdgeStyle;html=1;verticalAlign=bottom;endArrow=open;endSize=8;strokeColor=#ff0000;rounded=0;fontStyle=1;fontSize=15;" edge="1" parent="1" source="L43MrZcThB9rU_nbSlUN-3">
          <mxGeometry relative="1" as="geometry">
            <mxPoint x="200" y="140" as="targetPoint" />
          </mxGeometry>
        </mxCell>
        <mxCell id="L43MrZcThB9rU_nbSlUN-5" value="tambah mata pelajaran&amp;nbsp;" style="rounded=1;whiteSpace=wrap;html=1;arcSize=40;fontColor=#000000;fillColor=#ffffc0;strokeColor=#ff0000;fontStyle=1;fontSize=15;" vertex="1" parent="1">
          <mxGeometry x="140" y="140" width="120" height="40" as="geometry" />
        </mxCell>
        <mxCell id="L43MrZcThB9rU_nbSlUN-6" value="" style="edgeStyle=orthogonalEdgeStyle;html=1;verticalAlign=bottom;endArrow=open;endSize=8;strokeColor=#ff0000;rounded=0;fontStyle=1;fontSize=15;" edge="1" parent="1" source="L43MrZcThB9rU_nbSlUN-5" target="L43MrZcThB9rU_nbSlUN-9">
          <mxGeometry relative="1" as="geometry">
            <mxPoint x="200" y="240" as="targetPoint" />
          </mxGeometry>
        </mxCell>
        <mxCell id="L43MrZcThB9rU_nbSlUN-7" value="mengisi data mata pelajaran&amp;nbsp;" style="rounded=1;whiteSpace=wrap;html=1;arcSize=40;fontColor=#000000;fillColor=#ffffc0;strokeColor=#ff0000;fontStyle=1;fontSize=15;" vertex="1" parent="1">
          <mxGeometry x="130" y="210" width="130" height="51" as="geometry" />
        </mxCell>
        <mxCell id="L43MrZcThB9rU_nbSlUN-8" value="" style="edgeStyle=orthogonalEdgeStyle;html=1;verticalAlign=bottom;endArrow=open;endSize=8;strokeColor=#ff0000;rounded=0;entryX=0;entryY=0.5;entryDx=0;entryDy=0;fontStyle=1;fontSize=15;" edge="1" parent="1" source="L43MrZcThB9rU_nbSlUN-7" target="L43MrZcThB9rU_nbSlUN-11">
          <mxGeometry relative="1" as="geometry">
            <mxPoint x="390" y="300" as="targetPoint" />
          </mxGeometry>
        </mxCell>
        <mxCell id="L43MrZcThB9rU_nbSlUN-9" value="tampilan mata pelajaran&amp;nbsp;" style="rounded=1;whiteSpace=wrap;html=1;arcSize=40;fontColor=#000000;fillColor=#ffffc0;strokeColor=#ff0000;fontStyle=1;fontSize=15;" vertex="1" parent="1">
          <mxGeometry x="380" y="140" width="120" height="40" as="geometry" />
        </mxCell>
        <mxCell id="L43MrZcThB9rU_nbSlUN-10" value="" style="edgeStyle=orthogonalEdgeStyle;html=1;verticalAlign=bottom;endArrow=open;endSize=8;strokeColor=#ff0000;rounded=0;entryX=0.5;entryY=0;entryDx=0;entryDy=0;fontStyle=1;fontSize=15;" edge="1" parent="1" source="L43MrZcThB9rU_nbSlUN-9" target="L43MrZcThB9rU_nbSlUN-7">
          <mxGeometry relative="1" as="geometry">
            <mxPoint x="440" y="230" as="targetPoint" />
            <Array as="points">
              <mxPoint x="440" y="190" />
              <mxPoint x="194" y="190" />
              <mxPoint x="194" y="204" />
            </Array>
          </mxGeometry>
        </mxCell>
        <mxCell id="L43MrZcThB9rU_nbSlUN-11" value="validasi" style="rounded=1;whiteSpace=wrap;html=1;arcSize=40;fontColor=#000000;fillColor=#ffffc0;strokeColor=#ff0000;fontStyle=1;fontSize=15;" vertex="1" parent="1">
          <mxGeometry x="380" y="215.5" width="120" height="40" as="geometry" />
        </mxCell>
        <mxCell id="L43MrZcThB9rU_nbSlUN-12" value="" style="edgeStyle=orthogonalEdgeStyle;html=1;verticalAlign=bottom;endArrow=open;endSize=8;strokeColor=#ff0000;rounded=0;fontStyle=1;fontSize=15;" edge="1" parent="1" source="L43MrZcThB9rU_nbSlUN-11">
          <mxGeometry relative="1" as="geometry">
            <mxPoint x="440" y="320" as="targetPoint" />
          </mxGeometry>
        </mxCell>
        <mxCell id="L43MrZcThB9rU_nbSlUN-13" value="Condition" style="rhombus;whiteSpace=wrap;html=1;fontColor=#000000;fillColor=#ffffc0;strokeColor=#ff0000;fontStyle=1;fontSize=12;" vertex="1" parent="1">
          <mxGeometry x="400" y="285" width="80" height="40" as="geometry" />
        </mxCell>
        <mxCell id="L43MrZcThB9rU_nbSlUN-14" value="" style="edgeStyle=orthogonalEdgeStyle;html=1;align=left;verticalAlign=bottom;endArrow=open;endSize=8;strokeColor=#ff0000;rounded=0;entryX=0.5;entryY=1;entryDx=0;entryDy=0;fontStyle=1;fontSize=15;" edge="1" parent="1" source="L43MrZcThB9rU_nbSlUN-13" target="L43MrZcThB9rU_nbSlUN-7">
          <mxGeometry x="-1" relative="1" as="geometry">
            <mxPoint x="580" y="340" as="targetPoint" />
          </mxGeometry>
        </mxCell>
        <mxCell id="L43MrZcThB9rU_nbSlUN-15" value="&lt;b&gt;&lt;font style=&quot;font-size: 12px;&quot;&gt;data gagal&lt;/font&gt;&lt;/b&gt;" style="edgeLabel;html=1;align=center;verticalAlign=middle;resizable=0;points=[];" vertex="1" connectable="0" parent="L43MrZcThB9rU_nbSlUN-14">
          <mxGeometry x="-0.3624" y="-1" relative="1" as="geometry">
            <mxPoint as="offset" />
          </mxGeometry>
        </mxCell>
        <mxCell id="L43MrZcThB9rU_nbSlUN-16" value="" style="edgeStyle=orthogonalEdgeStyle;html=1;align=left;verticalAlign=top;endArrow=open;endSize=8;strokeColor=#ff0000;rounded=0;entryX=0.5;entryY=0;entryDx=0;entryDy=0;fontStyle=1;fontSize=15;" edge="1" parent="1" source="L43MrZcThB9rU_nbSlUN-13" target="L43MrZcThB9rU_nbSlUN-21">
          <mxGeometry x="-1" relative="1" as="geometry">
            <mxPoint x="440" y="420" as="targetPoint" />
          </mxGeometry>
        </mxCell>
        <mxCell id="L43MrZcThB9rU_nbSlUN-17" value="&lt;b&gt;&lt;font style=&quot;font-size: 12px;&quot;&gt;data berhasil&lt;/font&gt;&lt;/b&gt;" style="edgeLabel;html=1;align=center;verticalAlign=middle;resizable=0;points=[];" vertex="1" connectable="0" parent="L43MrZcThB9rU_nbSlUN-16">
          <mxGeometry x="-0.0909" y="-1" relative="1" as="geometry">
            <mxPoint as="offset" />
          </mxGeometry>
        </mxCell>
        <mxCell id="L43MrZcThB9rU_nbSlUN-18" value="&lt;p style=&quot;margin: 4px 0px 0px; text-align: center; font-size: 15px;&quot;&gt;&lt;span style=&quot;font-size: 15px;&quot;&gt;database&lt;/span&gt;&lt;/p&gt;" style="verticalAlign=top;align=left;overflow=fill;html=1;whiteSpace=wrap;fontStyle=1;fontSize=15;" vertex="1" parent="1">
          <mxGeometry x="560" y="40" width="240" height="610" as="geometry" />
        </mxCell>
        <mxCell id="L43MrZcThB9rU_nbSlUN-19" value="data disimpan" style="rounded=1;whiteSpace=wrap;html=1;arcSize=40;fontColor=#000000;fillColor=#ffffc0;strokeColor=#ff0000;fontStyle=1;fontSize=15;" vertex="1" parent="1">
          <mxGeometry x="620" y="285" width="120" height="40" as="geometry" />
        </mxCell>
        <mxCell id="L43MrZcThB9rU_nbSlUN-20" value="" style="edgeStyle=orthogonalEdgeStyle;html=1;verticalAlign=bottom;endArrow=none;endSize=8;strokeColor=#ff0000;rounded=0;entryX=1;entryY=0.5;entryDx=0;entryDy=0;startArrow=classic;startFill=1;endFill=0;fontStyle=1;fontSize=15;" edge="1" parent="1" source="L43MrZcThB9rU_nbSlUN-19" target="L43MrZcThB9rU_nbSlUN-13">
          <mxGeometry relative="1" as="geometry">
            <mxPoint x="680" y="420" as="targetPoint" />
          </mxGeometry>
        </mxCell>
        <mxCell id="L43MrZcThB9rU_nbSlUN-21" value="tampilan data mata pelajaran yang sudah di input" style="rounded=1;whiteSpace=wrap;html=1;arcSize=40;fontColor=#000000;fillColor=#ffffc0;strokeColor=#ff0000;fontStyle=1;fontSize=15;" vertex="1" parent="1">
          <mxGeometry x="365" y="370" width="150" height="70" as="geometry" />
        </mxCell>
        <mxCell id="L43MrZcThB9rU_nbSlUN-22" value="" style="edgeStyle=orthogonalEdgeStyle;html=1;verticalAlign=bottom;endArrow=open;endSize=8;strokeColor=#ff0000;rounded=0;entryX=0.5;entryY=0;entryDx=0;entryDy=0;fontStyle=1;fontSize=15;" edge="1" parent="1" source="L43MrZcThB9rU_nbSlUN-21" target="GP4w-wGL2lkFiO7zmax3-2">
          <mxGeometry relative="1" as="geometry">
            <mxPoint x="440" y="470" as="targetPoint" />
          </mxGeometry>
        </mxCell>
        <mxCell id="GP4w-wGL2lkFiO7zmax3-1" value="" style="ellipse;html=1;shape=endState;fillColor=#000000;strokeColor=#ff0000;fontStyle=1;fontSize=15;" vertex="1" parent="1">
          <mxGeometry x="425" y="561" width="30" height="30" as="geometry" />
        </mxCell>
        <mxCell id="GP4w-wGL2lkFiO7zmax3-2" value="menu utama" style="rounded=1;whiteSpace=wrap;html=1;arcSize=40;fontColor=#000000;fillColor=#ffffc0;strokeColor=#ff0000;fontStyle=1;fontSize=15;" vertex="1" parent="1">
          <mxGeometry x="380" y="480.0000000000001" width="120" height="40" as="geometry" />
        </mxCell>
        <mxCell id="GP4w-wGL2lkFiO7zmax3-3" value="" style="edgeStyle=orthogonalEdgeStyle;html=1;verticalAlign=bottom;endArrow=none;endSize=8;strokeColor=#ff0000;rounded=0;entryX=0.5;entryY=1;entryDx=0;entryDy=0;startArrow=classic;startFill=1;endFill=0;fontStyle=1;fontSize=15;" edge="1" parent="1" target="GP4w-wGL2lkFiO7zmax3-2">
          <mxGeometry relative="1" as="geometry">
            <mxPoint x="450" y="450" as="targetPoint" />
            <mxPoint x="440" y="560" as="sourcePoint" />
          </mxGeometry>
        </mxCell>
      </root>
    </mxGraphModel>
  </diagram>
  <diagram id="ulef15rs5nNAUk3Bp7cn" name="activity(data ujian)">
    <mxGraphModel dx="880" dy="472" grid="1" gridSize="10" guides="1" tooltips="1" connect="1" arrows="1" fold="1" page="1" pageScale="1" pageWidth="827" pageHeight="1169" math="0" shadow="0">
      <root>
        <mxCell id="0" />
        <mxCell id="1" parent="0" />
        <mxCell id="9T1IvVNopO-nKpcjNyDv-24" value="&lt;p style=&quot;margin: 4px 0px 0px; text-align: center; font-size: 15px;&quot;&gt;&lt;span style=&quot;font-size: 15px;&quot;&gt;actor&lt;/span&gt;&lt;/p&gt;" style="verticalAlign=top;align=left;overflow=fill;html=1;whiteSpace=wrap;fontStyle=1;fontSize=15;" vertex="1" parent="1">
          <mxGeometry x="90" y="50" width="240" height="590" as="geometry" />
        </mxCell>
        <mxCell id="9T1IvVNopO-nKpcjNyDv-25" value="&lt;p style=&quot;margin: 4px 0px 0px; text-align: center; font-size: 15px;&quot;&gt;&lt;span style=&quot;font-size: 15px;&quot;&gt;Sistem&lt;/span&gt;&lt;/p&gt;" style="verticalAlign=top;align=left;overflow=fill;html=1;whiteSpace=wrap;fontStyle=1;fontSize=15;" vertex="1" parent="1">
          <mxGeometry x="330" y="50" width="240" height="590" as="geometry" />
        </mxCell>
        <mxCell id="9T1IvVNopO-nKpcjNyDv-26" value="" style="ellipse;html=1;shape=startState;fillColor=#000000;strokeColor=#ff0000;fontStyle=1;fontSize=15;" vertex="1" parent="1">
          <mxGeometry x="195" y="90" width="30" height="30" as="geometry" />
        </mxCell>
        <mxCell id="9T1IvVNopO-nKpcjNyDv-27" value="" style="edgeStyle=orthogonalEdgeStyle;html=1;verticalAlign=bottom;endArrow=open;endSize=8;strokeColor=#ff0000;rounded=0;fontStyle=1;fontSize=15;" edge="1" parent="1" source="9T1IvVNopO-nKpcjNyDv-26">
          <mxGeometry relative="1" as="geometry">
            <mxPoint x="210" y="150" as="targetPoint" />
          </mxGeometry>
        </mxCell>
        <mxCell id="9T1IvVNopO-nKpcjNyDv-28" value="tambah data ujian&amp;nbsp;" style="rounded=1;whiteSpace=wrap;html=1;arcSize=40;fontColor=#000000;fillColor=#ffffc0;strokeColor=#ff0000;fontStyle=1;fontSize=15;" vertex="1" parent="1">
          <mxGeometry x="150" y="150" width="120" height="40" as="geometry" />
        </mxCell>
        <mxCell id="9T1IvVNopO-nKpcjNyDv-29" value="" style="edgeStyle=orthogonalEdgeStyle;html=1;verticalAlign=bottom;endArrow=open;endSize=8;strokeColor=#ff0000;rounded=0;fontStyle=1;fontSize=15;" edge="1" parent="1" source="9T1IvVNopO-nKpcjNyDv-28" target="9T1IvVNopO-nKpcjNyDv-32">
          <mxGeometry relative="1" as="geometry">
            <mxPoint x="210" y="250" as="targetPoint" />
          </mxGeometry>
        </mxCell>
        <mxCell id="9T1IvVNopO-nKpcjNyDv-30" value="mengisi data ujian&amp;nbsp;" style="rounded=1;whiteSpace=wrap;html=1;arcSize=40;fontColor=#000000;fillColor=#ffffc0;strokeColor=#ff0000;fontStyle=1;fontSize=15;" vertex="1" parent="1">
          <mxGeometry x="140" y="220" width="130" height="51" as="geometry" />
        </mxCell>
        <mxCell id="9T1IvVNopO-nKpcjNyDv-31" value="" style="edgeStyle=orthogonalEdgeStyle;html=1;verticalAlign=bottom;endArrow=open;endSize=8;strokeColor=#ff0000;rounded=0;entryX=0;entryY=0.5;entryDx=0;entryDy=0;fontStyle=1;fontSize=15;" edge="1" parent="1" source="9T1IvVNopO-nKpcjNyDv-30" target="9T1IvVNopO-nKpcjNyDv-34">
          <mxGeometry relative="1" as="geometry">
            <mxPoint x="400" y="310" as="targetPoint" />
          </mxGeometry>
        </mxCell>
        <mxCell id="9T1IvVNopO-nKpcjNyDv-32" value="tampilan data ujian&amp;nbsp;" style="rounded=1;whiteSpace=wrap;html=1;arcSize=40;fontColor=#000000;fillColor=#ffffc0;strokeColor=#ff0000;fontStyle=1;fontSize=15;" vertex="1" parent="1">
          <mxGeometry x="390" y="150" width="120" height="40" as="geometry" />
        </mxCell>
        <mxCell id="9T1IvVNopO-nKpcjNyDv-33" value="" style="edgeStyle=orthogonalEdgeStyle;html=1;verticalAlign=bottom;endArrow=open;endSize=8;strokeColor=#ff0000;rounded=0;entryX=0.5;entryY=0;entryDx=0;entryDy=0;fontStyle=1;fontSize=15;" edge="1" parent="1" source="9T1IvVNopO-nKpcjNyDv-32" target="9T1IvVNopO-nKpcjNyDv-30">
          <mxGeometry relative="1" as="geometry">
            <mxPoint x="450" y="240" as="targetPoint" />
            <Array as="points">
              <mxPoint x="450" y="200" />
              <mxPoint x="204" y="200" />
              <mxPoint x="204" y="214" />
            </Array>
          </mxGeometry>
        </mxCell>
        <mxCell id="9T1IvVNopO-nKpcjNyDv-34" value="validasi" style="rounded=1;whiteSpace=wrap;html=1;arcSize=40;fontColor=#000000;fillColor=#ffffc0;strokeColor=#ff0000;fontStyle=1;fontSize=15;" vertex="1" parent="1">
          <mxGeometry x="390" y="225.5" width="120" height="40" as="geometry" />
        </mxCell>
        <mxCell id="9T1IvVNopO-nKpcjNyDv-35" value="" style="edgeStyle=orthogonalEdgeStyle;html=1;verticalAlign=bottom;endArrow=open;endSize=8;strokeColor=#ff0000;rounded=0;fontStyle=1;fontSize=15;" edge="1" parent="1" source="9T1IvVNopO-nKpcjNyDv-34">
          <mxGeometry relative="1" as="geometry">
            <mxPoint x="450" y="330" as="targetPoint" />
          </mxGeometry>
        </mxCell>
        <mxCell id="9T1IvVNopO-nKpcjNyDv-36" value="Condition" style="rhombus;whiteSpace=wrap;html=1;fontColor=#000000;fillColor=#ffffc0;strokeColor=#ff0000;fontStyle=1;fontSize=12;" vertex="1" parent="1">
          <mxGeometry x="410" y="295" width="80" height="40" as="geometry" />
        </mxCell>
        <mxCell id="9T1IvVNopO-nKpcjNyDv-37" value="" style="edgeStyle=orthogonalEdgeStyle;html=1;align=left;verticalAlign=bottom;endArrow=open;endSize=8;strokeColor=#ff0000;rounded=0;entryX=0.5;entryY=1;entryDx=0;entryDy=0;fontStyle=1;fontSize=15;" edge="1" parent="1" source="9T1IvVNopO-nKpcjNyDv-36" target="9T1IvVNopO-nKpcjNyDv-30">
          <mxGeometry x="-1" relative="1" as="geometry">
            <mxPoint x="590" y="350" as="targetPoint" />
          </mxGeometry>
        </mxCell>
        <mxCell id="9T1IvVNopO-nKpcjNyDv-38" value="&lt;b&gt;&lt;font style=&quot;font-size: 12px;&quot;&gt;data gagal&lt;/font&gt;&lt;/b&gt;" style="edgeLabel;html=1;align=center;verticalAlign=middle;resizable=0;points=[];" vertex="1" connectable="0" parent="9T1IvVNopO-nKpcjNyDv-37">
          <mxGeometry x="-0.3624" y="-1" relative="1" as="geometry">
            <mxPoint as="offset" />
          </mxGeometry>
        </mxCell>
        <mxCell id="9T1IvVNopO-nKpcjNyDv-39" value="" style="edgeStyle=orthogonalEdgeStyle;html=1;align=left;verticalAlign=top;endArrow=open;endSize=8;strokeColor=#ff0000;rounded=0;entryX=0.5;entryY=0;entryDx=0;entryDy=0;fontStyle=1;fontSize=15;" edge="1" parent="1" source="9T1IvVNopO-nKpcjNyDv-36" target="9T1IvVNopO-nKpcjNyDv-44">
          <mxGeometry x="-1" relative="1" as="geometry">
            <mxPoint x="450" y="430" as="targetPoint" />
          </mxGeometry>
        </mxCell>
        <mxCell id="9T1IvVNopO-nKpcjNyDv-40" value="&lt;b&gt;&lt;font style=&quot;font-size: 12px;&quot;&gt;data berhasil&lt;/font&gt;&lt;/b&gt;" style="edgeLabel;html=1;align=center;verticalAlign=middle;resizable=0;points=[];" vertex="1" connectable="0" parent="9T1IvVNopO-nKpcjNyDv-39">
          <mxGeometry x="-0.0909" y="-1" relative="1" as="geometry">
            <mxPoint as="offset" />
          </mxGeometry>
        </mxCell>
        <mxCell id="9T1IvVNopO-nKpcjNyDv-41" value="&lt;p style=&quot;margin: 4px 0px 0px; text-align: center; font-size: 15px;&quot;&gt;&lt;span style=&quot;font-size: 15px;&quot;&gt;database&lt;/span&gt;&lt;/p&gt;" style="verticalAlign=top;align=left;overflow=fill;html=1;whiteSpace=wrap;fontStyle=1;fontSize=15;" vertex="1" parent="1">
          <mxGeometry x="570" y="50" width="240" height="590" as="geometry" />
        </mxCell>
        <mxCell id="9T1IvVNopO-nKpcjNyDv-42" value="data disimpan" style="rounded=1;whiteSpace=wrap;html=1;arcSize=40;fontColor=#000000;fillColor=#ffffc0;strokeColor=#ff0000;fontStyle=1;fontSize=15;" vertex="1" parent="1">
          <mxGeometry x="630" y="295" width="120" height="40" as="geometry" />
        </mxCell>
        <mxCell id="9T1IvVNopO-nKpcjNyDv-43" value="" style="edgeStyle=orthogonalEdgeStyle;html=1;verticalAlign=bottom;endArrow=none;endSize=8;strokeColor=#ff0000;rounded=0;entryX=1;entryY=0.5;entryDx=0;entryDy=0;startArrow=classic;startFill=1;endFill=0;fontStyle=1;fontSize=15;" edge="1" parent="1" source="9T1IvVNopO-nKpcjNyDv-42" target="9T1IvVNopO-nKpcjNyDv-36">
          <mxGeometry relative="1" as="geometry">
            <mxPoint x="690" y="430" as="targetPoint" />
          </mxGeometry>
        </mxCell>
        <mxCell id="9T1IvVNopO-nKpcjNyDv-44" value="tampilan data ujian yang sudah di input" style="rounded=1;whiteSpace=wrap;html=1;arcSize=40;fontColor=#000000;fillColor=#ffffc0;strokeColor=#ff0000;fontStyle=1;fontSize=15;" vertex="1" parent="1">
          <mxGeometry x="375" y="380" width="150" height="70" as="geometry" />
        </mxCell>
        <mxCell id="9T1IvVNopO-nKpcjNyDv-45" value="" style="edgeStyle=orthogonalEdgeStyle;html=1;verticalAlign=bottom;endArrow=open;endSize=8;strokeColor=#ff0000;rounded=0;entryX=0.5;entryY=0;entryDx=0;entryDy=0;fontStyle=1;fontSize=15;" edge="1" parent="1" source="9T1IvVNopO-nKpcjNyDv-44">
          <mxGeometry relative="1" as="geometry">
            <mxPoint x="450" y="480" as="targetPoint" />
          </mxGeometry>
        </mxCell>
        <mxCell id="VBsZlsy1v9lVITycGp6j-1" value="" style="ellipse;html=1;shape=endState;fillColor=#000000;strokeColor=#ff0000;fontStyle=1;fontSize=15;" vertex="1" parent="1">
          <mxGeometry x="435" y="561" width="30" height="30" as="geometry" />
        </mxCell>
        <mxCell id="VBsZlsy1v9lVITycGp6j-2" value="menu utama" style="rounded=1;whiteSpace=wrap;html=1;arcSize=40;fontColor=#000000;fillColor=#ffffc0;strokeColor=#ff0000;fontStyle=1;fontSize=15;" vertex="1" parent="1">
          <mxGeometry x="390" y="480.0000000000001" width="120" height="40" as="geometry" />
        </mxCell>
        <mxCell id="VBsZlsy1v9lVITycGp6j-3" value="" style="edgeStyle=orthogonalEdgeStyle;html=1;verticalAlign=bottom;endArrow=none;endSize=8;strokeColor=#ff0000;rounded=0;entryX=0.5;entryY=1;entryDx=0;entryDy=0;startArrow=open;startFill=0;endFill=0;fontStyle=1;fontSize=15;" edge="1" parent="1" target="VBsZlsy1v9lVITycGp6j-2">
          <mxGeometry relative="1" as="geometry">
            <mxPoint x="460" y="450" as="targetPoint" />
            <mxPoint x="450" y="560" as="sourcePoint" />
          </mxGeometry>
        </mxCell>
      </root>
    </mxGraphModel>
  </diagram>
  <diagram id="fuWwE9OTnXPpJJ9gvm2L" name="activity(log-out)">
    <mxGraphModel dx="607" dy="326" grid="1" gridSize="10" guides="1" tooltips="1" connect="1" arrows="1" fold="1" page="1" pageScale="1" pageWidth="827" pageHeight="1169" math="0" shadow="0">
      <root>
        <mxCell id="0" />
        <mxCell id="1" parent="0" />
        <mxCell id="nYCApyKQMw5Ae61T66Wd-1" value="&lt;p style=&quot;margin: 4px 0px 0px; text-align: center; font-size: 15px;&quot;&gt;&lt;span style=&quot;font-size: 15px;&quot;&gt;actor&lt;/span&gt;&lt;/p&gt;" style="verticalAlign=top;align=left;overflow=fill;html=1;whiteSpace=wrap;fontStyle=1;fontSize=15;" vertex="1" parent="1">
          <mxGeometry x="90" y="50" width="240" height="490" as="geometry" />
        </mxCell>
        <mxCell id="nYCApyKQMw5Ae61T66Wd-2" value="&lt;p style=&quot;margin: 4px 0px 0px; text-align: center; font-size: 15px;&quot;&gt;system&lt;/p&gt;" style="verticalAlign=top;align=left;overflow=fill;html=1;whiteSpace=wrap;fontStyle=1;fontSize=15;" vertex="1" parent="1">
          <mxGeometry x="330" y="50" width="240" height="490" as="geometry" />
        </mxCell>
        <mxCell id="nYCApyKQMw5Ae61T66Wd-3" value="" style="ellipse;html=1;shape=startState;fillColor=#000000;strokeColor=#ff0000;fontStyle=1;fontSize=15;" vertex="1" parent="1">
          <mxGeometry x="190" y="100" width="30" height="30" as="geometry" />
        </mxCell>
        <mxCell id="nYCApyKQMw5Ae61T66Wd-4" value="" style="edgeStyle=orthogonalEdgeStyle;html=1;verticalAlign=bottom;endArrow=open;endSize=8;strokeColor=#ff0000;rounded=0;entryX=0.5;entryY=0;entryDx=0;entryDy=0;fontStyle=1;fontSize=15;" edge="1" source="nYCApyKQMw5Ae61T66Wd-3" parent="1" target="nYCApyKQMw5Ae61T66Wd-5">
          <mxGeometry relative="1" as="geometry">
            <mxPoint x="205" y="190" as="targetPoint" />
          </mxGeometry>
        </mxCell>
        <mxCell id="nYCApyKQMw5Ae61T66Wd-5" value="log-out" style="rounded=1;whiteSpace=wrap;html=1;arcSize=40;fontColor=#000000;fillColor=#ffffc0;strokeColor=#ff0000;fontStyle=1;fontSize=15;" vertex="1" parent="1">
          <mxGeometry x="145" y="160" width="120" height="40" as="geometry" />
        </mxCell>
        <mxCell id="nYCApyKQMw5Ae61T66Wd-6" value="" style="edgeStyle=orthogonalEdgeStyle;html=1;verticalAlign=bottom;endArrow=open;endSize=8;strokeColor=#ff0000;rounded=0;entryX=0;entryY=0.5;entryDx=0;entryDy=0;fontStyle=1;fontSize=15;" edge="1" source="nYCApyKQMw5Ae61T66Wd-5" parent="1" target="nYCApyKQMw5Ae61T66Wd-7">
          <mxGeometry relative="1" as="geometry">
            <mxPoint x="205" y="290" as="targetPoint" />
          </mxGeometry>
        </mxCell>
        <mxCell id="nYCApyKQMw5Ae61T66Wd-7" value="submit log-out" style="rounded=1;whiteSpace=wrap;html=1;arcSize=40;fontColor=#000000;fillColor=#ffffc0;strokeColor=#ff0000;fontStyle=1;fontSize=15;" vertex="1" parent="1">
          <mxGeometry x="390" y="160" width="120" height="40" as="geometry" />
        </mxCell>
        <mxCell id="nYCApyKQMw5Ae61T66Wd-8" value="" style="edgeStyle=orthogonalEdgeStyle;html=1;verticalAlign=bottom;endArrow=open;endSize=8;strokeColor=#ff0000;rounded=0;fontStyle=1;fontSize=15;" edge="1" source="nYCApyKQMw5Ae61T66Wd-7" parent="1">
          <mxGeometry relative="1" as="geometry">
            <mxPoint x="450" y="260" as="targetPoint" />
          </mxGeometry>
        </mxCell>
        <mxCell id="nYCApyKQMw5Ae61T66Wd-9" value="Condition" style="rhombus;whiteSpace=wrap;html=1;fontColor=#000000;fillColor=#ffffc0;strokeColor=#ff0000;fontStyle=1;fontSize=11;" vertex="1" parent="1">
          <mxGeometry x="410" y="260" width="80" height="40" as="geometry" />
        </mxCell>
        <mxCell id="nYCApyKQMw5Ae61T66Wd-10" value="" style="edgeStyle=orthogonalEdgeStyle;html=1;align=left;verticalAlign=bottom;endArrow=open;endSize=8;strokeColor=#ff0000;rounded=0;entryX=1;entryY=0.5;entryDx=0;entryDy=0;fontStyle=1;fontSize=15;" edge="1" source="nYCApyKQMw5Ae61T66Wd-9" parent="1" target="nYCApyKQMw5Ae61T66Wd-14">
          <mxGeometry x="-1" relative="1" as="geometry">
            <mxPoint x="580" y="280" as="targetPoint" />
          </mxGeometry>
        </mxCell>
        <mxCell id="nYCApyKQMw5Ae61T66Wd-11" value="" style="edgeStyle=orthogonalEdgeStyle;html=1;align=left;verticalAlign=top;endArrow=open;endSize=8;strokeColor=#ff0000;rounded=0;entryX=0.5;entryY=0;entryDx=0;entryDy=0;fontStyle=1;fontSize=15;" edge="1" source="nYCApyKQMw5Ae61T66Wd-9" parent="1" target="nYCApyKQMw5Ae61T66Wd-12">
          <mxGeometry x="-1" y="36" relative="1" as="geometry">
            <mxPoint x="440" y="360" as="targetPoint" />
            <mxPoint x="-16" y="-30" as="offset" />
          </mxGeometry>
        </mxCell>
        <mxCell id="nYCApyKQMw5Ae61T66Wd-12" value="menu utama" style="rounded=1;whiteSpace=wrap;html=1;arcSize=40;fontColor=#000000;fillColor=#ffffc0;strokeColor=#ff0000;fontStyle=1;fontSize=15;" vertex="1" parent="1">
          <mxGeometry x="390" y="360" width="120" height="40" as="geometry" />
        </mxCell>
        <mxCell id="nYCApyKQMw5Ae61T66Wd-14" value="login" style="rounded=1;whiteSpace=wrap;html=1;arcSize=40;fontColor=#000000;fillColor=#ffffc0;strokeColor=#ff0000;fontStyle=1;fontSize=15;" vertex="1" parent="1">
          <mxGeometry x="145" y="260" width="120" height="40" as="geometry" />
        </mxCell>
        <mxCell id="nYCApyKQMw5Ae61T66Wd-15" value="" style="edgeStyle=orthogonalEdgeStyle;html=1;verticalAlign=bottom;endArrow=open;endSize=8;strokeColor=#ff0000;rounded=0;entryX=0.5;entryY=0;entryDx=0;entryDy=0;fontStyle=1;fontSize=15;" edge="1" source="nYCApyKQMw5Ae61T66Wd-14" parent="1" target="nYCApyKQMw5Ae61T66Wd-16">
          <mxGeometry relative="1" as="geometry">
            <mxPoint x="205" y="360" as="targetPoint" />
          </mxGeometry>
        </mxCell>
        <mxCell id="nYCApyKQMw5Ae61T66Wd-16" value="" style="ellipse;html=1;shape=endState;fillColor=#000000;strokeColor=#ff0000;fontStyle=1;fontSize=15;" vertex="1" parent="1">
          <mxGeometry x="190" y="370" width="30" height="30" as="geometry" />
        </mxCell>
      </root>
    </mxGraphModel>
  </diagram>
</mxfile>
